<?xml version="1.0" encoding="UTF-8" standalone="no"?>
<svg
   xmlns:dc="http://purl.org/dc/elements/1.1/"
   xmlns:cc="http://creativecommons.org/ns#"
   xmlns:rdf="http://www.w3.org/1999/02/22-rdf-syntax-ns#"
   xmlns:svg="http://www.w3.org/2000/svg"
   xmlns="http://www.w3.org/2000/svg"
   xmlns:sodipodi="http://sodipodi.sourceforge.net/DTD/sodipodi-0.dtd"
   xmlns:inkscape="http://www.inkscape.org/namespaces/inkscape"
   width="30"
   height="30"
   viewBox="0 0 30 30"
   version="1.1"
   preserveAspectRatio="xMidYMid"
   id="svg6256"
   sodipodi:docname="semantic-ui.svg"
   inkscape:version="0.92.2 (5c3e80d, 2017-08-06)">
  <metadata
     id="metadata6262">
    <rdf:RDF>
      <cc:Work
         rdf:about="">
        <dc:format>image/svg+xml</dc:format>
        <dc:type
           rdf:resource="http://purl.org/dc/dcmitype/StillImage" />
        <dc:title></dc:title>
      </cc:Work>
    </rdf:RDF>
  </metadata>
  <defs
     id="defs6260" />
  <sodipodi:namedview
     pagecolor="#ffffff"
     bordercolor="#666666"
     borderopacity="1"
     objecttolerance="10"
     gridtolerance="10"
     guidetolerance="10"
     inkscape:pageopacity="0"
     inkscape:pageshadow="2"
     inkscape:window-width="1920"
     inkscape:window-height="1017"
     id="namedview6258"
     showgrid="false"
     inkscape:zoom="20.85965"
     inkscape:cx="19.216139"
     inkscape:cy="11.6954"
     inkscape:window-x="-8"
     inkscape:window-y="-8"
     inkscape:window-maximized="1"
     inkscape:current-layer="svg6256" />
  <g
     id="g6254"
     transform="matrix(0.11705284,0,0,0.11705284,0.03056906,0.0168875)">
    <path
       style="fill:#34bdb2"
       inkscape:connector-curvature="0"
       d="M 0,0 H 256 V 256 H 0 Z"
       id="path6250" />
    <path
       style="fill:#ffffff"
       inkscape:connector-curvature="0"
       d="m 168.461,87.041 c -13.516,-7.842 -25.514,-14.009 -41.21,-13.737 -8.98,0.156 -16.69,5.037 -18.311,13.97 -1.509,8.311 5.879,12.921 13.565,15.751 12.747,4.694 23.844,9.65 36.369,14.869 22.769,9.489 34.444,24.856 33.064,44.573 -1.756,25.087 -16.854,43.08 -40.849,49.012 -31.354,7.752 -61.801,-4.056 -87.526,-20.54 6.493,-9.891 14.026,-16.643 20.48,-26.474 14.862,6.326 26.538,14.874 42.086,16.207 10.963,0.94 23.385,0.417 25.848,-12.46 2.22,-11.612 -7.886,-17.837 -17.743,-21.314 -11.735,-4.139 -23.448,-9.202 -34.956,-13.902 -21.273,-8.689 -29.929,-25.684 -28.472,-45.705 0,-11.739 9.74,-35.466 33.621,-42.846 36.692,-11.34 56.908,0.272 83.515,17.371 -7.067,9.346 -12.5,15.991 -19.481,25.225"
       id="path6252" />
  </g>
</svg>
